HIERARCHY
ROOT root
{
	OFFSET 0.000000 0.000000 0.000000
	CHANNELS 6 Xposition Yposition Zposition Zrotation Yrotation Xrotation
	JOINT lhip
	{
		OFFSET 0.058581 -0.082280 -0.017664
		CHANNELS 3 Zrotation Yrotation Xrotation
		JOINT lknee
		{
			OFFSET 0.043451 -0.386469 0.008037
			CHANNELS 3 Zrotation Yrotation Xrotation
			JOINT lankle
			{
				OFFSET -0.014790 -0.426874 -0.037428
				CHANNELS 3 Zrotation Yrotation Xrotation
				JOINT ltoe
				{
					OFFSET 0.041054 -0.060286 0.122042
					CHANNELS 3 Zrotation Yrotation Xrotation
					End Site
					{
						OFFSET 0.000000 0.000000 0.000000
					}
				}
			}
		}
	}
	JOINT rhip
	{
		OFFSET -0.060310 -0.090513 -0.013543
		CHANNELS 3 Zrotation Yrotation Xrotation
		JOINT rknee
		{
			OFFSET -0.043257 -0.383688 -0.004843
			CHANNELS 3 Zrotation Yrotation Xrotation
			JOINT rankle
			{
				OFFSET 0.019056 -0.420046 -0.034562
				CHANNELS 3 Zrotation Yrotation Xrotation
				JOINT rtoe
				{
					OFFSET -0.034840 -0.062106 0.130323
					CHANNELS 3 Zrotation Yrotation Xrotation
					End Site
					{
						OFFSET 0.000000 0.000000 0.000000
					}
				}
			}
		}
	}
	JOINT lowerback
	{
		OFFSET 0.004439 0.124404 -0.038385
		CHANNELS 3 Zrotation Yrotation Xrotation
		JOINT upperback
		{
			OFFSET 0.004488 0.137956 0.026820
			CHANNELS 3 Zrotation Yrotation Xrotation
			JOINT chest
			{
				OFFSET -0.002265 0.056032 0.002855
				CHANNELS 3 Zrotation Yrotation Xrotation
				JOINT lowerneck
				{
					OFFSET -0.013390 0.211636 -0.033468
					CHANNELS 3 Zrotation Yrotation Xrotation
					JOINT upperneck
					{
						OFFSET 0.010113 0.088937 0.050410
						CHANNELS 3 Zrotation Yrotation Xrotation
						End Site
						{
							OFFSET 0.000000 0.000000 0.000000
						}
					}
				}
				JOINT lclavicle
				{
					OFFSET 0.071702 0.114000 -0.018898
					CHANNELS 3 Zrotation Yrotation Xrotation
					JOINT lshoulder
					{
						OFFSET 0.122921 0.045205 -0.019046
						CHANNELS 3 Zrotation Yrotation Xrotation
						JOINT lelbow
						{
							OFFSET 0.255332 -0.015649 -0.022946
							CHANNELS 3 Zrotation Yrotation Xrotation
							JOINT lwrist
							{
								OFFSET 0.265709 0.012698 -0.007375
								CHANNELS 3 Zrotation Yrotation Xrotation
								End Site
								{
									OFFSET 0.000000 0.000000 0.000000
								}
							}
						}
					}
				}
				JOINT rclavicle
				{
					OFFSET -0.082954 0.112472 -0.023707
					CHANNELS 3 Zrotation Yrotation Xrotation
					JOINT rshoulder
					{
						OFFSET -0.113228 0.046853 -0.008472
						CHANNELS 3 Zrotation Yrotation Xrotation
						JOINT relbow
						{
							OFFSET -0.260127 -0.014369 -0.031269
							CHANNELS 3 Zrotation Yrotation Xrotation
							JOINT rwrist
							{
								OFFSET -0.269108 0.006794 -0.006027
								CHANNELS 3 Zrotation Yrotation Xrotation
								End Site
								{
									OFFSET 0.000000 0.000000 0.000000
								}
							}
						}
					}
				}
			}
		}
	}
}
MOTION
Frames: 11
Frame Time: 0.033333
-0.171678 0.472083 0.898442 127.696818 4.718209 106.934391 16.512957 -3.800823 -60.164475 -14.225240 -14.043621 40.444174 -2.399779 1.814348 -12.056915 0.000000 -0.000000 0.000000 1.941716 0.407532 -38.810923 -7.410655 -10.577099 48.429688 -4.006592 -24.075186 -36.737002 0.000000 -0.000000 0.000000 -2.947059 4.832021 51.504779 -6.942946 0.817122 -1.133472 1.978092 1.800295 -9.898290 -12.406269 17.677047 -27.513034 -0.288081 -0.697998 -23.117424 -14.361001 1.677701 1.109622 -45.346306 8.355286 5.328497 14.266716 -39.632752 -6.848165 -2.229592 -29.819518 14.287828 15.961975 10.212315 17.131943 48.894245 -11.748597 13.090972 13.816849 27.978214 45.437006 1.107020 22.903163 4.759709 
-0.165531 0.479386 0.900280 129.277537 4.890154 107.524851 16.355981 -4.411148 -60.836068 -14.574757 -14.014913 41.097447 -2.185889 1.739300 -11.887422 0.000000 -0.000000 0.000000 2.428020 -0.140682 -38.087324 -7.995633 -11.451546 47.857275 -4.631563 -24.766619 -36.892565 0.000000 -0.000000 0.000000 -3.030361 4.870355 51.778890 -6.901286 0.409688 -1.376614 2.026201 1.586819 -10.135326 -11.758628 17.109358 -28.337910 -0.273348 -1.089196 -22.420477 -13.839240 0.943980 1.563617 -47.319456 8.033787 5.643776 14.999591 -40.990013 -5.357330 -3.957233 -30.049585 15.205403 15.430604 10.883374 16.763090 50.033600 -11.226747 13.205623 13.023227 27.785903 44.828567 1.339204 22.725512 4.696444 
-0.157946 0.485449 0.901505 129.588914 5.624608 108.153277 16.765919 -3.895686 -61.201767 -14.536881 -13.402697 41.836087 -1.840783 1.558623 -12.411658 0.000000 -0.000000 0.000000 3.299190 0.905495 -37.596411 -8.292652 -11.519137 47.074344 -5.068342 -25.619211 -36.330580 0.000000 -0.000000 0.000000 -3.779981 5.688240 51.081962 -6.763830 0.768554 -0.740603 2.299770 1.382233 -10.740223 -11.069769 16.902622 -28.340255 -0.158031 -1.632739 -22.454067 -13.449776 1.040754 2.029894 -48.622580 8.011760 6.364163 15.806258 -42.464309 -4.457089 -7.390549 -27.742118 17.623055 15.260636 10.876049 17.097242 50.398170 -10.263632 13.642683 11.411848 28.292091 44.017248 2.336693 21.474774 3.823640 
-0.153872 0.491391 0.903917 130.369265 5.978968 108.536254 16.978948 -4.417735 -61.336971 -14.475864 -13.468963 42.040919 -1.719537 1.585540 -12.373209 0.000000 -0.000000 0.000000 3.712515 1.028475 -36.710062 -8.307275 -11.733149 45.876310 -5.308964 -25.814704 -35.767440 0.000000 -0.000000 0.000000 -3.954622 5.899266 51.315503 -6.642852 0.651146 -0.821120 2.381556 1.443578 -10.740561 -10.746381 16.601674 -28.329820 -0.103901 -1.820832 -22.017194 -13.157994 1.315817 1.953007 -49.932958 7.761309 6.646126 16.300203 -42.556906 -4.963555 -6.927262 -26.623617 16.360698 15.029825 10.424505 16.708845 50.311763 -9.856767 13.517275 10.997543 28.597930 43.698101 1.273889 20.403949 4.398314 
-0.150261 0.496744 0.905759 130.899806 6.241580 108.961785 17.044214 -4.558018 -61.421340 -14.492764 -13.488989 42.178309 -1.595245 1.473409 -12.665584 0.000000 -0.000000 0.000000 3.985070 0.751898 -36.161016 -8.284321 -12.165195 45.102874 -5.160767 -25.675754 -35.730868 0.000000 -0.000000 0.000000 -3.972666 5.942061 51.273049 -6.705535 0.657593 -0.817019 2.389862 1.262851 -10.721136 -10.411225 16.491774 -27.779323 0.211554 -2.274957 -21.854399 -13.367311 1.772668 1.787550 -50.292500 7.797800 6.464773 16.394734 -42.167318 -5.590397 -8.512084 -26.275087 18.867644 14.670307 10.803029 16.913093 50.404746 -9.706035 13.635088 10.923011 28.916091 43.028612 3.107776 21.425931 3.347950 
-0.149280 0.501544 0.907075 131.760209 5.836880 109.133842 16.810720 -5.680355 -61.459425 -14.696664 -13.660720 41.984356 -1.500097 1.946079 -12.686020 0.000000 -0.000000 0.000000 3.590954 -0.583897 -35.763409 -7.849828 -12.228925 44.737694 -4.990891 -25.624075 -36.147496 0.000000 -0.000000 0.000000 -3.687117 5.948813 51.812905 -6.845900 0.233808 -1.113260 2.306933 1.332108 -10.393096 -10.160183 15.533519 -27.326404 0.820564 -2.265217 -21.367772 -13.490462 1.347299 2.205236 -50.166488 7.618543 6.198582 15.399715 -41.503864 -5.002188 -8.018900 -27.502033 18.279252 14.436737 10.668371 16.910582 49.940062 -10.353138 13.002562 12.501493 29.756627 44.049798 3.453958 21.754768 4.086175 
-0.147021 0.505019 0.907566 131.721455 5.943102 109.317178 16.652137 -5.784879 -61.395229 -14.804350 -14.084580 42.223218 -1.208171 2.348727 -13.036361 0.000000 -0.000000 0.000000 3.891449 -0.774910 -35.427544 -7.911731 -11.931055 44.122231 -5.150717 -25.897677 -35.910784 0.000000 -0.000000 0.000000 -3.605159 6.986407 51.301286 -6.480463 1.006412 0.913184 2.525697 0.692584 -11.416289 -9.891012 15.073097 -27.545609 0.237025 -2.970743 -20.867701 -13.329175 1.209733 2.106266 -50.806223 7.947763 6.162445 15.023045 -41.792024 -4.667394 -8.774689 -26.820803 18.510664 13.969773 10.714682 16.562720 49.469885 -11.295744 13.056017 13.563946 30.285182 44.921171 3.175854 21.869203 4.119077 
-0.145519 0.507832 0.907451 131.415981 6.135556 109.827774 16.721123 -5.602246 -61.925846 -14.535562 -13.780419 42.733904 -1.180859 2.316838 -13.423927 0.000000 -0.000000 0.000000 4.006629 -0.421611 -35.563176 -8.190918 -12.009893 43.787676 -4.768039 -26.112737 -36.016741 0.000000 -0.000000 0.000000 -3.799259 7.274938 50.814099 -6.582374 1.157694 0.615705 2.576311 0.945020 -11.254422 -9.983911 14.674990 -26.796538 0.829236 -3.014879 -21.129655 -13.408074 1.124664 2.565792 -50.453093 8.652233 6.611754 14.296852 -41.951335 -4.402129 -9.186762 -26.507587 18.882571 14.062229 11.119552 17.126524 49.008740 -11.961436 13.600371 14.302435 30.228959 45.890699 4.890320 22.683467 3.353485 
-0.145375 0.510619 0.908105 132.048097 6.293368 109.909299 16.879479 -6.297790 -62.103569 -14.559055 -14.031287 42.975160 -1.262965 2.504450 -13.385897 0.000000 -0.000000 0.000000 4.339770 -0.369180 -34.957624 -8.439045 -12.060001 43.036196 -4.433612 -26.266562 -36.257945 0.000000 -0.000000 0.000000 -4.005220 6.837596 51.394377 -6.240064 0.592451 0.244964 2.948600 1.534083 -11.068902 -10.019868 14.163516 -27.285039 1.180192 -2.604555 -21.032480 -14.487190 1.939043 2.109317 -49.434235 9.074612 6.663212 13.419215 -41.502627 -3.822521 -10.289645 -26.212980 19.773697 14.397998 11.063600 17.723925 47.690076 -11.554098 13.796149 14.861638 29.919894 45.748707 6.642629 22.808150 4.051843 
-0.146040 0.512347 0.908248 132.625991 6.051768 110.269506 16.709541 -6.982857 -62.530399 -14.391806 -14.238440 42.851080 -1.196826 2.725741 -13.293092 0.000000 -0.000000 0.000000 4.235149 -0.397894 -35.047277 -8.906135 -12.122063 42.633015 -4.353491 -26.758561 -36.004853 0.000000 -0.000000 0.000000 -3.782994 6.613584 51.603061 -6.171512 0.262009 -0.038032 2.925397 1.498260 -10.661390 -9.464419 13.897037 -27.311446 1.473190 -2.869414 -20.746695 -14.431338 1.766402 2.332430 -49.407828 9.572154 6.010338 13.423114 -42.091205 -3.919304 -10.535007 -25.606646 19.509767 14.701366 11.120991 17.537796 47.480120 -11.939359 12.968788 14.538126 29.578294 45.199235 6.074728 22.262162 4.837898 
-0.145865 0.513540 0.908337 132.838251 5.873874 110.970963 16.356127 -7.004011 -63.116186 -14.195704 -14.599740 42.675785 -1.284949 2.700322 -13.212693 0.000000 -0.000000 0.000000 4.151395 -0.015951 -35.601852 -9.040646 -11.870194 42.212131 -4.433535 -27.546735 -36.177960 0.000000 -0.000000 0.000000 -3.382653 6.614405 51.610391 -6.412473 0.383961 -0.481286 2.736006 1.012924 -10.482972 -9.118317 13.053125 -26.678102 2.258936 -3.196001 -20.886306 -14.790175 1.895810 2.485125 -48.205265 9.392007 5.697444 12.743420 -41.811093 -4.021338 -10.710751 -26.404266 19.892128 14.621440 10.683760 17.039875 48.104939 -12.161778 12.633544 14.360652 29.339595 45.236250 6.200634 22.490008 4.695908 
